<?xml version="1.0" encoding="utf-8"?>
<!-- Generator: Adobe Illustrator 21.0.0, SVG Export Plug-In . SVG Version: 6.00 Build 0)  -->
<svg version="1.1" id="Layer_1" xmlns="http://www.w3.org/2000/svg" xmlns:xlink="http://www.w3.org/1999/xlink" x="0px" y="0px"
	 viewBox="0 0 200 200" style="enable-background:new 0 0 200 200;" xml:space="preserve">
<style type="text/css">
	.st0{fill:#F26321;}
	.st1{fill:#428BCA;}
</style>
<g>
	<g>
		<path class="st0" d="M426.7-179.9h-94.4c-5.4,0-9.8,4.4-9.8,9.8v21.9c-17.9,5.1-31,21.6-31,41.2c0,19.5,13.1,36,31,41.2v37.7
			c0,5.4,4.4,9.8,9.8,9.8h77.1c0.9,0,1.8-0.4,2.4-1L435.5-43c0.6-0.6,1-1.5,1-2.4v-124.7C436.5-175.5,432.1-179.9,426.7-179.9
			L426.7-179.9z M332.3-173h94.4c1.6,0,2.9,1.3,2.9,2.9v10.4H329.4v-10.4C329.4-171.7,330.7-173,332.3-173L332.3-173z M298.4-107
			c0-19.8,16.1-35.9,35.9-35.9c19.8,0,35.9,16.1,35.9,35.9s-16.1,35.9-35.9,35.9C314.5-71.1,298.4-87.2,298.4-107L298.4-107z
			 M329.4-28.2v-36.4c1.6,0.2,3.2,0.3,4.9,0.3c12.9,0,24.4-5.7,32.3-14.7h21.1c1.9,0,3.4-1.5,3.4-3.5c0-1.9-1.5-3.4-3.4-3.4h-16.2
			c3-5.2,4.9-11.2,5.5-17.5h10.8c1.9,0,3.4-1.5,3.4-3.4c0-1.9-1.5-3.5-3.4-3.5H377c-0.5-6.3-2.3-12.2-5.2-17.5h15.9
			c1.9,0,3.4-1.5,3.4-3.4c0-1.9-1.5-3.4-3.4-3.4H367c-7.9-9.3-19.6-15.2-32.7-15.2c-1.6,0-3.3,0.1-4.9,0.3v-3.2h100.2v104h-13.8
			c-5.4,0-9.8,4.4-9.8,9.8v13.8h-73.7C330.7-25.3,329.4-26.6,329.4-28.2L329.4-28.2z M412.9-30.1v-8.9c0-1.6,1.3-2.9,2.9-2.9h8.9
			L412.9-30.1z M412.9-30.1"/>
		<path class="st0" d="M401.2-127.7h11.5c1.9,0,3.5-1.5,3.5-3.4c0-1.9-1.5-3.4-3.5-3.4h-11.5c-1.9,0-3.5,1.5-3.5,3.4
			C397.8-129.3,399.3-127.7,401.2-127.7L401.2-127.7z M401.2-127.7"/>
		<path class="st0" d="M401.2-103.3h11.5c1.9,0,3.5-1.5,3.5-3.4c0-1.9-1.5-3.5-3.5-3.5h-11.5c-1.9,0-3.5,1.5-3.5,3.5
			C397.8-104.9,399.3-103.3,401.2-103.3L401.2-103.3z M401.2-103.3"/>
		<path class="st0" d="M401.2-78.9h11.5c1.9,0,3.5-1.5,3.5-3.5c0-1.9-1.5-3.4-3.5-3.4h-11.5c-1.9,0-3.5,1.5-3.5,3.4
			C397.8-80.5,399.3-78.9,401.2-78.9L401.2-78.9z M401.2-78.9"/>
		<path class="st0" d="M412.7-54.5c1.9,0,3.5-1.5,3.5-3.4c0-1.9-1.5-3.5-3.5-3.5h-32.3c-1.9,0-3.5,1.5-3.5,3.5
			c0,1.9,1.5,3.4,3.5,3.4H412.7z M412.7-54.5"/>
		<path class="st0" d="M361.1-124.4l-4.2-4.2c-1.1-1.1-2.6-1.8-4.2-1.8c-1.6,0-3.1,0.6-4.2,1.8l-22.1,22.1l-6.1-6.1
			c-1.1-1.1-2.6-1.8-4.2-1.8c-1.6,0-3.1,0.6-4.2,1.8l-4.2,4.2c-2.3,2.3-2.3,6.1,0,8.5L322-85.4c1.1,1.1,2.6,1.8,4.2,1.8
			c1.6,0,3.1-0.6,4.2-1.8l30.5-30.5C363.4-118.3,363.4-122.1,361.1-124.4L361.1-124.4z M326.3-90.9L313-104.2l2.9-2.9l7.9,7.9
			c1.3,1.3,3.5,1.3,4.9,0l23.9-23.9l2.9,2.9L326.3-90.9z M326.3-90.9"/>
	</g>
</g>
<g>
	<path class="st0" d="M122.2,138.4h-10.3c-1.5,0-2.8,1.2-2.8,2.8c0,1.5,1.2,2.8,2.8,2.8h10.3c1.5,0,2.8-1.2,2.8-2.8
		C125,139.6,123.7,138.4,122.2,138.4z"/>
	<path class="st0" d="M183,108.9l-15-5.8l-7.7-7.7c-0.5-0.5-1.1-0.8-1.8-0.8v-6.1c3.6-3.9,6.2-8.7,7.2-14.2c0.6,0,1.3,0,1.9-0.2
		c3.7-0.8,6.3-4.2,6.3-8.1v-2c0-2.3-0.9-4.4-2.4-5.9c2.4-13.3,0.4-24.1-5.8-31.3c-6.1-7-15.8-10.3-28.2-9.7
		c-11.5,0.6-18.9,5.9-21.2,7.8c-1.3,0.2-3.5,0.6-5.7,1.9c-3.1,1.8-6.7,5.7-6.7,13.7c0,6.9,1.1,12.7,1.9,16c-2.7,1.3-4.5,4.2-4.5,7.4
		v2c0,3.9,2.7,7.4,6.3,8.1c0.6,0.1,1.3,0.2,1.9,0.2c1,5.5,3.6,10.4,7.2,14.2v6.1c-0.6,0-1.3,0.3-1.8,0.8l-7.7,7.7l-15,5.8
		c-1.3,0.5-2.5,1.2-3.7,1.9c-1.3,0.9-1.6,2.6-0.7,3.8c0.5,0.8,1.4,1.2,2.3,1.2c0.5,0,1.1-0.2,1.5-0.5c0.8-0.5,1.7-1,2.6-1.3l14-5.4
		l10.7,16c1.3,2,3.4,3.3,5.8,3.5c0.3,0,0.5,0,0.8,0c1.4,0,2.7-0.4,3.9-1l-2.3,51.9c-0.1,1.5,1.1,2.8,2.6,2.9c0,0,0.1,0,0.1,0
		c1.5,0,2.7-1.2,2.8-2.6l2.1-48.2h5.7l2.1,48.2c0.1,1.5,1.3,2.6,2.8,2.6c0,0,0.1,0,0.1,0c1.5-0.1,2.7-1.4,2.6-2.9l-2.3-51.9
		c1.2,0.7,2.5,1,3.9,1c0.3,0,0.5,0,0.8,0c2.4-0.2,4.5-1.5,5.8-3.5l10.7-16l14,5.4c2,0.8,3.6,2,5,3.5l-9.5,9.5
		c-3.4,3.4-5.3,8-5.3,12.9v39.3c0,1.5,1.2,2.8,2.8,2.8c1.5,0,2.8-1.2,2.8-2.8v-39.3c0-3.4,1.3-6.6,3.7-9l8.4-8.4
		c0.3,1.2,0.5,2.5,0.4,3.9l-2.1,52.7c-0.1,1.5,1.1,2.8,2.6,2.9c0,0,0.1,0,0.1,0c1.5,0,2.7-1.2,2.8-2.6l2.1-52.7
		C195,118.8,190.3,111.7,183,108.9z M137.7,111.8l-15.3-13.4v-5.3c4.5,2.8,9.7,4.5,15.3,4.5c5.6,0,10.9-1.6,15.3-4.5v5.3
		L137.7,111.8z M109.5,68.7c-0.2,0-0.4,0-0.6,0c-1.1-0.2-1.9-1.4-1.9-2.7v-2c0-1.3,0.9-2.4,1.9-2.6c0.9-0.2,1.8,0.2,2.4,0.9
		c0.5,0.7,1.2,1.1,2,1.4c1.1,0.3,2.4,0.1,3.3-0.5c1.7-1.2,3.2-2.7,4.5-4.4c0.9-1.2,0.7-3-0.6-3.9c-1.2-0.9-3-0.7-3.9,0.6
		c-0.6,0.9-1.4,1.6-2.1,2.3c-0.9-0.7-1.9-1.3-3-1.6c-0.7-2.7-2-8.5-2-15.6c0-4.2,1.3-7.2,3.9-8.8c2-1.3,4.1-1.3,4.1-1.3
		c0.7,0,1.4-0.3,1.9-0.8c0.1-0.1,6.9-6.4,18.5-7c10.6-0.6,18.9,2.1,23.7,7.8c4.9,5.7,6.6,14.5,4.8,25.4c-0.7,0-1.5,0-2.4,0.2
		l-2.6-6.2c-0.5-1.3-1.9-2-3.2-1.6c-0.3,0.1-25.7,6.5-36.4-6.8c-1-1.2-2.7-1.4-3.9-0.4c-1.2,1-1.4,2.7-0.4,3.9
		c10.9,13.6,32.6,10.6,39.8,9.2l2,4.8c0.9,2.1,3.1,3.2,5.2,2.7c0.9-0.2,1.7-0.2,2.1-0.2c1.1,0.2,2,1.3,2,2.6v2
		c0,1.3-0.8,2.5-1.9,2.7c-0.2,0-0.4,0.1-0.6,0c-2.6-0.2-5.1,1.7-5.6,4.4c-2,10.9-11.5,18.9-22.7,18.9s-20.6-7.9-22.7-18.9
		C114.6,70.5,112.1,68.6,109.5,68.7z M125.4,122.6c-0.4,0-1.2-0.2-1.8-1.1l-10.7-16.1l4.3-4.3l16.5,14.4l-6.4,6.4
		C126.6,122.6,125.8,122.7,125.4,122.6z M135.1,125.6l0.2-3.8l2.5-2.5l2.5,2.5l0.2,3.8L135.1,125.6L135.1,125.6z M151.8,121.6
		c-0.5,0.8-1.3,1-1.8,1.1c-0.4,0-1.2,0-1.9-0.7l-6.4-6.4l16.5-14.4l4.3,4.3L151.8,121.6z"/>
	<path class="st0" d="M93.8,123.3l-13.5-5.9l-7.4-7.4c-0.5-0.5-1.1-0.8-1.8-0.8v-4.3c6.3-4.1,10.9-10.7,12.4-18.6
		c0.7,0,1.5,0,2.2-0.2c3.5-0.8,6.1-4.2,6.1-8v-2c0-2.8-1.4-5.3-3.5-6.8c0.6-2.5,1-5.1,1-7.6c0-11.4-6.2-21.5-15.5-27.3
		c-0.1-9.5-8.2-17.3-18.3-17.3s-18.2,7.7-18.3,17.3c-9.3,5.8-15.5,15.9-15.5,27.3c0,2.6,0.3,5.1,0.9,7.6c-2.1,1.5-3.5,4-3.5,6.8v2
		c0,3.8,2.6,7.2,6.1,8c0.7,0.2,1.5,0.2,2.2,0.2c1.5,7.8,6.1,14.4,12.4,18.6v4.3c-0.6,0-1.3,0.3-1.8,0.8l-7.4,7.4l-13.5,5.9
		c-6.9,3-11.3,10-10.9,17.5l1.6,38.5c0.1,1.5,1.3,2.6,2.8,2.6c0,0,0.1,0,0.1,0c1.5-0.1,2.7-1.4,2.6-2.9l-1.6-38.5
		c-0.1-2.5,0.5-4.9,1.8-7l7.2,8.7c2.3,2.7,3.6,6.2,3.6,9.8v27c0,1.5,1.2,2.8,2.8,2.8c1.5,0,2.8-1.2,2.8-2.8v-27
		c0-4.9-1.7-9.6-4.8-13.3l-7.7-9.2c0.7-0.5,1.4-0.9,2.1-1.2l11.7-5.1l8.3,13.5c0.8,1.3,2.2,2.2,3.7,2.5c0.3,0,0.6,0.1,0.8,0.1
		c1.3,0,2.5-0.4,3.5-1.3l5.3-4.5v45.7c0,1.5,1.2,2.8,2.8,2.8s2.8-1.2,2.8-2.8v-45.7l5.3,4.5c1,0.8,2.2,1.3,3.5,1.3
		c0.3,0,0.6,0,0.8-0.1c1.5-0.2,2.9-1.1,3.7-2.5l8.3-13.5l11.7,5.1c0.7,0.3,1.4,0.7,2.1,1.2l-7.7,9.2c-3.1,3.7-4.8,8.5-4.8,13.3v27
		c0,1.5,1.2,2.8,2.8,2.8s2.8-1.2,2.8-2.8v-27c0-3.6,1.3-7.1,3.6-9.8l7.2-8.7c1.2,2.1,1.9,4.5,1.8,7l-1.6,38.5
		c-0.1,1.5,1.1,2.8,2.6,2.9c0,0,0.1,0,0.1,0c1.5,0,2.7-1.2,2.8-2.6l1.6-38.5C105.1,133.3,100.7,126.3,93.8,123.3z M55.5,22.6
		c5.9,0,10.8,3.7,12.3,8.8c-3.8-1.4-8-2.2-12.3-2.2S47,30,43.2,31.4C44.7,26.3,49.6,22.6,55.5,22.6z M32.9,85.2
		c-0.5-2.7-2.9-4.6-5.6-4.4c-0.2,0-0.5,0-0.7-0.1c-1.1-0.2-1.8-1.4-1.8-2.7v-2c0-1.3,0.9-2.4,1.9-2.6c0.9-0.2,1.8,0.2,2.4,0.9
		c0.5,0.7,1.2,1.1,2,1.4c1.1,0.3,2.4,0.1,3.3-0.5c1.7-1.2,3.2-2.7,4.5-4.3c0.9-1.2,0.7-2.9-0.5-3.9c-1.2-0.9-2.9-0.7-3.9,0.5
		c-0.6,0.8-1.3,1.6-2.1,2.3c-1.2-1-2.6-1.6-4.2-1.8c-0.5-2.1-0.8-4.2-0.8-6.3c0-14.9,12.7-26.9,28.2-26.9
		c15.6,0,28.2,12.1,28.2,26.9c0,2.1-0.3,4.3-0.8,6.3c-0.7,0.1-1.5,0.2-2.1,0.4l-2.1-1.7c-1-0.9-2.4-1.3-3.7-1.2
		c-4.1,0.2-24.8,0.8-35.5-12c-1-1.2-2.7-1.3-3.9-0.3c-1.2,1-1.3,2.7-0.3,3.9c5.3,6.3,13,10.5,22.9,12.6c7.6,1.6,14.4,1.5,17,1.3
		l3.2,2.7c0.9,0.7,2.1,0.8,3.1,0.3c0.5-0.3,2-0.5,2.7-0.4c1.1,0.2,2,1.3,2,2.6v2c0,1.3-0.8,2.4-1.8,2.7c-0.2,0.1-0.5,0.1-0.7,0.1
		c-2.6-0.2-5.1,1.7-5.6,4.4c-2,10.9-11.5,18.9-22.7,18.9C44.4,104.1,34.9,96.2,32.9,85.2z M55.5,109.6c3.6,0,7-0.7,10.2-1.9v5.7
		l-10.2,10.2l-10.2-10.2v-5.7C48.5,109,52,109.6,55.5,109.6z M44.1,133.7l-8.3-13.5l4.3-4.3l11.4,11.4L44.1,133.7z M67,133.7
		l-7.4-6.3L71,115.9l4.3,4.3L67,133.7z"/>
	<path class="st0" d="M45.2,150.6h-7.7c-1.5,0-2.8,1.2-2.8,2.8c0,1.5,1.2,2.8,2.8,2.8h7.7c1.5,0,2.8-1.2,2.8-2.8
		C47.9,151.8,46.7,150.6,45.2,150.6z"/>
</g>
<g>
	<path class="st1" d="M1016.8,48.7H994c-0.1-0.5-0.4-1-0.7-1.3l-26-28.8c-0.6-0.6-1.4-1-2.3-1h-51.7c-7,0-12.8,5.7-12.8,12.8v18.4
		H878c-5.3,0-9.6,4.3-9.6,9.6v65.2c-6.5,3.6-10.5,10.4-10.5,17.8v30.2c0,1.7,1.4,3,3,3h31.3l-0.4,4.1c-0.1,1.1,0.4,2.2,1.4,2.8
		l5.4,3.6c1,0.7,2.4,0.7,3.4,0l5.3-3.6c0.9-0.6,1.4-1.7,1.3-2.8l-0.4-4.1h10.3l-1.4,5h-6.4c-1.7,0-3,1.4-3,3c0,1.7,1.4,3,3,3H984
		c1.7,0,3-1.4,3-3c0-1.7-1.4-3-3-3h-6.4l-4.8-17.5h44c5.3,0,9.6-4.3,9.6-9.6V58.2C1026.3,53,1022,48.7,1016.8,48.7z M1020.3,58.2
		v72.4h-26.2V54.8h22.7C1018.7,54.8,1020.3,56.3,1020.3,58.2z M924.8,174.5h13.4c1.7,0,3-1.4,3-3v-9.5h25.1l4.8,17.5h-47.8
		L924.8,174.5z M902.4,177.4l-2.1,1.4l-2.2-1.5l2.2-23L902.4,177.4z M898.7,131.8l-1.2-3.6l5.2,0l-1.2,3.6H898.7z M906.5,135.8
		l3.3-9.7c0.3-0.9,0.2-2-0.4-2.7c-0.6-0.8-1.5-1.3-2.5-1.3l-13.7,0c-1,0-1.9,0.5-2.5,1.3s-0.7,1.8-0.4,2.8l3.3,9.7
		c0.3,1,1.1,1.7,2.1,1.9L895,145l-8.1-22.1c-0.4-1.2-1.6-2-2.9-2h-5.8c-1.3,0-2.5,0.1-3.8,0.4v-63c0,0,0-0.1,0-0.1
		c0-1.9,1.6-3.4,3.5-3.4h22.7V73c-0.3,0-0.7,0-1,0c-10.7,0-19.5,8.8-19.5,19.5V99c0,10.7,8.8,19.4,19.5,19.4
		c10.7,0,19.5-8.7,19.5-19.4v-6.6c0-8-5-15.2-12.4-18.2v-44c0-3.7,3-6.7,6.7-6.7h48.7v18.8c0,4.3,3.5,7.9,7.9,7.9h17.8l0.2,0.2v80.1
		h-49.7c-1.2-2-2.7-3.7-4.5-5.2h41.5c1.7,0,3-1.4,3-3s-1.4-3-3-3h-55.9c-1.1,0-2.1,0.6-2.6,1.5h-0.5c-1.3,0-2.4,0.8-2.9,2l-7.9,21.9
		l-0.7-7.2C905.6,137.3,906.2,136.6,906.5,135.8z M913,99c0,7.4-6,13.4-13.4,13.4c-7.4,0-13.4-6-13.4-13.4v-6.6
		c0-7.4,6.1-13.4,13.4-13.4c7.4,0,13.4,6,13.4,13.4V99z M918.4,127h2.6c7.8,0,14.2,6.4,14.2,14.2v27.2h-27.5l-0.9-9.3L918.4,127z
		 M893.7,159.1l-0.9,9.3l-28.8,0v-27.2c0-7.8,6.4-14.2,14.2-14.2h3.7L893.7,159.1z M940.8,136.7h79.5v15.6c0,1.9-1.6,3.5-3.5,3.5
		h-75.5v-14.6C941.3,139.7,941.1,138.2,940.8,136.7z M968.1,42.4V28.5l14.2,15.8H970C969,44.2,968.1,43.4,968.1,42.4z"/>
	<path class="st1" d="M919.4,113.8h33.5c1.7,0,3-1.4,3-3c0-1.7-1.4-3-3-3h-33.5c-1.7,0-3,1.4-3,3
		C916.4,112.4,917.7,113.8,919.4,113.8z"/>
	<path class="st1" d="M947.5,87.7h-0.2c-4.1-0.1-7.4-3.4-7.4-7.5c0-1.7-1.4-3-3-3s-3,1.4-3,3c0,6.3,4.4,11.8,10.5,13.2V97
		c0,1.7,1.4,3,3,3c1.7,0,3-1.4,3-3v-3.6c6.6-1.5,11.1-7.7,10.5-14.5c-0.7-7-6.5-12.3-13.5-12.3c-4.1,0-7.5-3.4-7.5-7.5
		s3.4-7.5,7.5-7.5s7.5,3.4,7.5,7.5c0,1.7,1.4,3,3,3c1.7,0,3-1.4,3-3c0-6.3-4.4-11.8-10.5-13.2v-3.1c0-1.7-1.4-3-3-3
		c-1.7,0-3,1.4-3,3v3.1c-6.6,1.5-11.1,7.7-10.5,14.5c0.7,7,6.5,12.3,13.5,12.3c4.1,0,7.4,3.4,7.4,7.5
		C954.8,84.2,951.5,87.6,947.5,87.7z"/>
</g>
<g>
	<g>
		<path class="st1" d="M1306.9,186c-0.9,0-1.8-0.2-2.7-0.5l-9.4-3.9c-3.2-1.3-5-4.9-4.2-8.2c0.5-2,1-4,1.6-6.1
			c-2.9-2.3-5.5-4.9-7.8-7.8c-2,0.5-4.1,1.1-6.1,1.6c-3.4,0.8-6.9-1-8.2-4.2l-3.9-9.4c-1.3-3.2-0.1-7,2.9-8.8
			c1.8-1.1,3.6-2.1,5.4-3.2c-0.4-3.6-0.4-7.3,0-11c-1.8-1.1-3.6-2.1-5.4-3.2c-3-1.8-4.2-5.6-2.9-8.8l3.9-9.4c1.3-3.2,4.9-5,8.2-4.2
			c2,0.5,4,1,6.1,1.6c2.3-2.9,4.9-5.5,7.8-7.8c-0.5-2-1.1-4.1-1.6-6.1c-0.8-3.4,1-6.9,4.2-8.2l9.4-3.9c3.2-1.3,7-0.1,8.8,2.9
			c1.1,1.8,2.1,3.6,3.2,5.4c3.6-0.4,7.3-0.4,11,0c1.1-1.8,2.1-3.6,3.2-5.4c1.8-3,5.6-4.2,8.8-2.9l9.4,3.9c3.2,1.3,5,4.9,4.2,8.2
			c-0.5,2-1,4-1.6,6.1c2.9,2.3,5.5,4.9,7.8,7.8c2-0.5,4.1-1.1,6.1-1.6c3.4-0.8,6.9,1,8.2,4.2l3.9,9.4l0,0c1.3,3.2,0.1,7-2.9,8.8
			c-1.8,1.1-3.6,2.1-5.4,3.2c0.4,3.6,0.4,7.3,0,11c1.8,1.1,3.6,2.1,5.4,3.2c3,1.8,4.2,5.6,2.9,8.8l-3.9,9.4c-1.3,3.2-4.9,5-8.2,4.2
			c-2-0.5-4-1-6.1-1.6c-2.3,2.9-4.9,5.5-7.8,7.8c0.5,2,1.1,4.1,1.6,6.1c0.8,3.4-1,6.9-4.2,8.2l-9.4,3.9c-3.2,1.3-7,0.1-8.8-2.9
			c-1.1-1.8-2.1-3.6-3.2-5.4c-3.6,0.4-7.3,0.4-11,0c-1.1,1.8-2.1,3.7-3.2,5.4C1311.7,184.8,1309.4,186,1306.9,186z M1298.2,174.8
			l8.6,3.6c1-1.7,2-3.4,3.1-5.2c1.4-2.5,4.2-3.8,7-3.5c3.2,0.4,6.5,0.4,9.8,0c2.8-0.3,5.6,1,7,3.5c1,1.7,2,3.5,3.1,5.2l8.6-3.6
			c-0.5-1.9-1-3.9-1.5-5.8c-0.7-2.8,0.2-5.7,2.5-7.4c2.6-2,4.9-4.3,6.9-6.9c1.7-2.2,4.7-3.2,7.4-2.5c1.9,0.5,3.9,1,5.8,1.5l3.6-8.6
			c-1.7-1-3.5-2-5.2-3.1c-2.5-1.4-3.8-4.2-3.5-7c0.4-3.2,0.4-6.5,0-9.8c-0.4-2.8,1-5.6,3.5-7c1.8-1,3.5-2,5.2-3.1l-3.6-8.6
			c-1.9,0.5-3.9,1-5.8,1.5c-2.8,0.7-5.7-0.2-7.4-2.5c-2-2.6-4.3-4.9-6.9-6.9c-2.2-1.7-3.2-4.7-2.5-7.4c0.5-2,1-3.9,1.5-5.8l-8.6-3.6
			c-1,1.7-2,3.4-3.1,5.2c-1.4,2.5-4.2,3.9-7,3.5c-3.2-0.4-6.5-0.4-9.8,0c-2.8,0.4-5.6-1-7-3.5c-1-1.8-2-3.5-3.1-5.2l-8.6,3.6
			c0.5,1.9,1,3.9,1.5,5.8c0.7,2.8-0.2,5.7-2.5,7.4c-2.6,2-4.9,4.3-6.9,6.9c-1.7,2.2-4.7,3.2-7.4,2.5c-2-0.5-3.9-1-5.8-1.5l-3.6,8.6
			c1.7,1,3.4,2,5.2,3.1c2.5,1.4,3.8,4.2,3.5,7c-0.4,3.2-0.4,6.5,0,9.8c0.4,2.8-1,5.6-3.5,7c-1.7,1-3.5,2-5.2,3.1l3.6,8.6
			c1.9-0.5,3.9-1,5.8-1.5c2.8-0.7,5.7,0.2,7.4,2.5c2,2.6,4.3,4.9,6.9,6.9c2.2,1.7,3.2,4.7,2.5,7.4
			C1299.2,170.9,1298.6,172.9,1298.2,174.8z"/>
		<path class="st1" d="M1321.7,155.9c-3.3,0-6.7-0.7-9.8-2c-6.4-2.6-11.3-7.6-13.9-13.9c-5.4-13.1,0.8-28.2,13.9-33.6
			c13.1-5.4,28.2,0.8,33.6,13.9l0,0c5.4,13.1-0.8,28.2-13.9,33.6C1328.4,155.2,1325,155.9,1321.7,155.9z M1321.7,111.9
			c-2.3,0-4.7,0.4-6.9,1.4c-9.3,3.8-13.7,14.5-9.8,23.8c1.9,4.5,5.4,8,9.8,9.8c4.5,1.9,9.4,1.9,13.9,0c9.3-3.8,13.7-14.5,9.8-23.8
			C1335.6,116.2,1328.8,111.9,1321.7,111.9z"/>
		<path class="st1" d="M1395.3,103h-7.4c-2.9,0-5.5-2.2-5.9-5.1c-0.2-1.3-0.4-2.6-0.6-4c-2.3-0.7-4.5-1.6-6.5-2.7
			c-1.1,0.8-2.2,1.6-3.2,2.4c-2.4,1.7-5.7,1.5-7.8-0.6l-5.2-5.2c-2.1-2.1-2.3-5.4-0.6-7.8c0.8-1.1,1.6-2.1,2.4-3.2
			c-1.1-2.1-2-4.3-2.7-6.5c-1.3-0.2-2.7-0.4-4-0.6c-2.9-0.4-5.1-3-5.1-5.9v-7.4c0-2.9,2.2-5.5,5.1-5.9c1.3-0.2,2.6-0.4,4-0.6
			c0.7-2.3,1.6-4.5,2.7-6.5c-0.8-1.1-1.6-2.2-2.4-3.2c-1.7-2.4-1.5-5.7,0.6-7.8l5.2-5.2c2.1-2.1,5.4-2.3,7.8-0.6
			c1.1,0.8,2.1,1.6,3.2,2.4c2.1-1.1,4.3-2,6.5-2.7c0.2-1.3,0.4-2.7,0.6-4c0.4-2.9,3-5.1,5.9-5.1h7.4c2.9,0,5.5,2.2,5.9,5.1
			c0.2,1.3,0.4,2.6,0.6,4c2.3,0.7,4.5,1.6,6.5,2.7c1.1-0.8,2.2-1.6,3.2-2.4c2.4-1.7,5.7-1.5,7.8,0.6l5.2,5.2
			c2.1,2.1,2.3,5.4,0.6,7.8c-0.8,1.1-1.6,2.1-2.4,3.2c1.1,2.1,2,4.3,2.7,6.5c1.3,0.2,2.7,0.4,4,0.6c2.9,0.4,5.1,3,5.1,5.9v7.4
			c0,2.9-2.2,5.5-5.1,5.9c-1.3,0.2-2.6,0.4-4,0.6c-0.7,2.3-1.6,4.5-2.7,6.5c0.8,1.1,1.6,2.2,2.4,3.2c1.7,2.4,1.5,5.7-0.6,7.8
			l-5.2,5.2c-2.1,2.1-5.4,2.3-7.8,0.6c-1.1-0.8-2.1-1.6-3.2-2.4c-2.1,1.1-4.3,2-6.5,2.7c-0.2,1.3-0.4,2.7-0.6,4
			C1400.8,100.8,1398.3,103,1395.3,103z M1389,95.8h5.3c0.2-1.2,0.3-2.4,0.5-3.6c0.3-2.4,2-4.4,4.3-5c2.2-0.6,4.4-1.5,6.4-2.6
			c2.1-1.2,4.7-1,6.6,0.5c1,0.7,1.9,1.5,2.9,2.2l3.8-3.8c-0.7-1-1.5-1.9-2.2-2.9c-1.5-1.9-1.7-4.5-0.5-6.6c1.1-2,2-4.1,2.6-6.4
			c0.6-2.3,2.6-4,5-4.3c1.2-0.2,2.4-0.3,3.6-0.5v-5.3c-1.2-0.2-2.4-0.3-3.6-0.5c-2.4-0.3-4.4-2-5-4.3c-0.6-2.2-1.5-4.4-2.6-6.4
			c-1.2-2.1-1-4.7,0.5-6.6c0.7-1,1.5-1.9,2.2-2.9L1415,33c-1,0.7-1.9,1.5-2.9,2.2c-1.9,1.5-4.5,1.7-6.6,0.5c-2-1.1-4.1-2-6.4-2.6
			c-2.3-0.6-4-2.6-4.3-5c-0.2-1.2-0.3-2.4-0.5-3.6h-5.3c-0.2,1.2-0.3,2.4-0.5,3.6c-0.3,2.4-2,4.4-4.3,5c-2.2,0.6-4.4,1.5-6.4,2.6
			c-2.1,1.2-4.7,1-6.6-0.5c-1-0.7-1.9-1.5-2.9-2.2l-3.8,3.8c0.7,1,1.5,1.9,2.2,2.9c1.5,1.9,1.7,4.5,0.5,6.6c-1.1,2-2,4.1-2.6,6.4
			c-0.6,2.3-2.6,4-5,4.3c-1.2,0.2-2.4,0.3-3.6,0.5v5.3c1.2,0.2,2.4,0.3,3.6,0.5c2.4,0.3,4.4,2,5,4.3c0.6,2.2,1.5,4.4,2.6,6.4
			c1.2,2.1,1,4.7-0.5,6.6c-0.7,1-1.5,1.9-2.2,2.9l3.8,3.8c1-0.7,1.9-1.5,2.9-2.2c1.9-1.5,4.5-1.7,6.6-0.5c2,1.1,4.1,2,6.4,2.6
			c2.3,0.6,4,2.6,4.3,5C1388.7,93.5,1388.8,94.7,1389,95.8z"/>
		<path class="st1" d="M1391.7,75.4c-8.4,0-15.3-6.9-15.3-15.3c0-8.4,6.9-15.3,15.3-15.3s15.3,6.9,15.3,15.3
			C1407,68.6,1400.1,75.4,1391.7,75.4z M1391.7,51.7c-4.7,0-8.5,3.8-8.5,8.5s3.8,8.5,8.5,8.5s8.5-3.8,8.5-8.5
			C1400.2,55.5,1396.3,51.7,1391.7,51.7z"/>
	</g>
</g>
</svg>
